<svg height="511pt" viewBox="-104 1 511 511.99998" width="511pt" xmlns="http://www.w3.org/2000/svg"><path d="m76.488281 283.0625h7.503907v176.394531c0 28.972657 23.570312 52.542969 52.542968 52.542969s52.542969-23.570312 52.542969-52.542969v-176.394531h7.507813v-45.039062h-120.097657zm60.046875 213.925781c-20.695312 0-37.53125-16.835937-37.53125-37.53125v-99.566406l6.527344-2.042969c9.070312-2.832031 18.960938-1.042968 26.460938 4.792969 7.882812 6.128906 17.433593 9.265625 27.046874 9.261719 5.074219 0 10.160157-.890625 15.027344-2.660156v90.214843c0 20.695313-16.835937 37.53125-37.53125 37.53125zm37.53125-144.246093-1.394531.746093c-10.085937 5.378907-22.4375 4.320313-31.460937-2.699219-1.394532-1.082031-2.839844-2.070312-4.332032-2.96875 11.320313-6.984374 25.445313-7.53125 37.1875-1.628906zm-82.566406-99.707032h90.074219v15.015625h-15.015625v15.011719h7.507812v46.898438c-15.769531-5.359376-33.535156-3.125-47.640625 6.75l-7.28125 5.097656c-6.003906-.683594-12.164062-.140625-18.09375 1.710937l-2.046875.640625v-61.097656h52.542969v-15.011719h-60.046875zm0 0"/><path d="m125.277344 388.148438h15.011718v15.011718h-15.011718zm0 0"/><path d="m140.289062 403.160156h15.011719v15.011719h-15.011719zm0 0"/><path d="m110.265625 448.199219h15.011719v15.011719h-15.011719zm0 0"/><path d="m144.042969 463.210938h15.011719v15.011718h-15.011719zm0 0"/><path d="m292.945312 1.65625c-.394531.058594-9.761718 1.425781-20.351562 3.757812-20.410156 4.492188-26.65625 8.421876-29.578125 10.988282-10.359375 9.089844-12.425781 24.160156-5.589844 35.589844l-3.457031 3.242187-17.398438-15.378906-9.941406 11.25 19.980469 17.660156v14.246094h-10.613281l-30.023438 30.023437h-33.355468c-4.617188-9.597656-10.085938-15.816406-10.484376-16.257812l-5.597656-6.265625-5.597656 6.265625c-.277344.308594-3.085938 3.5-6.335938 8.71875l-11.226562-11.226563h-6.863281v-17.53125l28.765625-28.765625-10.613282-10.613281-6.890624 6.890625-9.703126-9.707031-10.617187 10.613281 9.707031 9.707031-15.660156 15.65625v23.75h-17.53125l-6.507812-6.507812c6.589843-11.347657 4.511718-26.171875-5.679688-35.203125-2.910156-2.578125-9.136719-6.535156-29.527344-11.125-10.574218-2.378906-19.9375-3.792969-20.332031-3.851563l-11.421875-1.710937 3.074219 11.132812c.105469.382813 2.636719 9.507813 6.273437 19.722656 7.011719 19.6875 11.691406 25.390626 14.601563 27.96875 5.191406 4.601563 11.75 7.082032 18.625 7.082032.578125 0 1.15625-.019532 1.738281-.050782 4.253906-.257812 8.304688-1.449218 11.929688-3.453124l2.6875 2.691406-21.097657 15.824218h-21.894531v15.011719h26.898438l30.023437-22.519531h33.796875l10.472656 10.472656c-2.105468 5.828125-3.609375 12.460938-3.609375 19.554688 0 23.324218 16.230469 41.757812 16.921875 42.53125l5.597656 6.265625 5.597657-6.265625c.6875-.773438 16.917969-19.207032 16.917969-42.53125 0-3.914063-.460938-7.683594-1.226563-11.261719h34.363281l30.023438-30.023437h31.3125l12.8125 12.8125 10.617187-10.613282-17.210937-17.210937h-18.121094v-14.378907l6.671875-6.253906c3.496094 1.875 7.382813 3 11.460937 3.265625.625.042969 1.246094.0625 1.867188.0625 6.832031 0 13.347656-2.449219 18.527344-6.992187 2.921875-2.566406 7.628906-8.25 14.734375-27.902344 3.683593-10.195312 6.257812-19.308594 6.363281-19.691406l3.125-11.121094zm-258.542968 81.804688c-2.675782-2.371094-7.910156-13.539063-12.925782-29.003907 15.957032 3.117188 27.671876 6.96875 30.347657 9.339844 3.636719 3.222656 5.046875 8.023437 4.140625 12.472656l-4.195313-4.195312-10.613281 10.613281 3.917969 3.917969c-3.71875.5625-7.648438-.464844-10.671875-3.144531zm102.117187 80.402343c-3.558593-6-7.488281-14.832031-7.488281-24.554687 0-9.644532 3.945312-18.5 7.503906-24.527344 3.5625 6.027344 7.507813 14.882812 7.507813 24.527344 0 9.660156-3.957031 18.527344-7.523438 24.554687zm133.730469-116.433593c-2.625 2.300781-5.984375 3.445312-9.460938 3.234374l8.484376-7.953124-10.265626-10.953126-10.039062 9.410157c-1.34375-4.730469.015625-10.03125 3.949219-13.484375 2.6875-2.355469 14.421875-6.15625 30.390625-9.195313-5.085938 15.441407-10.375 26.582031-13.058594 28.941407zm0 0"/><path d="m211.597656 177.976562c0 4.136719-3.367187 7.503907-7.507812 7.503907h-7.503906c-12.417969 0-22.519532 10.101562-22.519532 22.519531v15.011719h15.011719v-15.011719c0-4.140625 3.367187-7.507812 7.507813-7.507812h7.503906c12.417968 0 22.519531-10.101563 22.519531-22.515626 0-4.140624 3.367187-7.507812 7.507813-7.507812h15.011718v-15.011719h-15.011718c-12.417969 0-22.519532 10.101563-22.519532 22.519531zm0 0"/><path d="m83.992188 208v15.011719h15.011718v-15.011719c0-12.417969-10.101562-22.519531-22.515625-22.519531h-7.507812c-4.140625 0-7.507813-3.367188-7.507813-7.503907 0-12.417968-10.101562-22.519531-22.515625-22.519531h-15.015625v15.011719h15.015625c4.136719 0 7.503907 3.367188 7.503907 7.507812 0 12.414063 10.101562 22.515626 22.519531 22.515626h7.507812c4.136719 0 7.503907 3.367187 7.503907 7.507812zm0 0"/><path d="m76.488281 147.949219h15.011719v15.015625h-15.011719zm0 0"/><path d="m129.03125 208h15.011719v15.011719h-15.011719zm0 0"/><path d="m166.558594 162.964844h15.015625v15.011718h-15.015625zm0 0"/><path d="m61.472656 132.9375h15.015625v15.011719h-15.015625zm0 0"/></svg>