<svg id="Capa_1" enable-background="new 0 0 512.105 512.105" height="512" viewBox="0 0 512.105 512.105" width="512" xmlns="http://www.w3.org/2000/svg"><g id="XMLID_233_"><path id="XMLID_1294_" d="m482.105 141.078v36.721h-34.497v-173.493h-382.45v173.492h-32.121v-36.721h-30v130.467c0 50.918 21.14 97.189 57.774 128.968-9.51-.546-14.381-3.572-20.862-7.623-8.754-5.47-19.648-12.279-39.949-12.279v30c11.697 0 16.878 3.238 24.048 7.72 8.753 5.472 19.647 12.28 39.949 12.28s31.196-6.809 39.95-12.28c7.17-4.481 12.352-7.72 24.049-7.72s16.879 3.238 24.049 7.72c8.754 5.472 19.648 12.28 39.95 12.28 20.301 0 31.195-6.81 39.948-12.28 7.17-4.481 12.351-7.72 24.048-7.72 11.698 0 16.879 3.238 24.05 7.72 8.754 5.472 19.648 12.28 39.95 12.28s31.197-6.809 39.95-12.28c7.171-4.481 12.353-7.72 24.051-7.72 11.699 0 16.881 3.238 24.052 7.72 8.754 5.472 19.649 12.28 39.952 12.28s31.197-6.809 39.952-12.28c7.171-4.481 12.353-7.72 24.052-7.72v-30c-20.303 0-31.197 6.809-39.952 12.28-5.919 3.699-10.492 6.545-18.482 7.428 36.708-32.682 58.539-79.618 58.539-128.774v-130.466zm-386.947-106.772h322.45v38.997h-322.45zm0 68.997h322.45v74.495h-322.45zm386.947 104.496v32h-449.068v-32zm-98.113 172.811c-20.302 0-31.197 6.809-39.95 12.28-7.171 4.481-12.353 7.72-24.051 7.72s-16.879-3.238-24.049-7.72c-8.754-5.472-19.648-12.28-39.95-12.28-20.301 0-31.195 6.81-39.948 12.28-7.17 4.481-12.351 7.72-24.048 7.72-11.698 0-16.879-3.238-24.049-7.72-8.754-5.472-19.648-12.28-39.95-12.28-15.385 0-25.362 3.911-33.104 8.186-13.958-9.232-25.856-20.719-35.385-33.884h395.001c-9.766 13.364-21.87 25.172-35.925 34.721-7.952-4.587-18.206-9.023-34.592-9.023zm98.113-109.065c0 18.473-3.757 36.574-10.714 53.367h-428.321c-6.542-16.53-10.033-34.557-10.033-53.367v-1.746h449.068z"/><path id="XMLID_1357_" d="m142.1 126.648h30v28.86h-30z"/><path id="XMLID_1358_" d="m208.289 126.648h30v28.86h-30z"/><path id="XMLID_1359_" d="m274.478 126.648h30v28.86h-30z"/><path id="XMLID_1360_" d="m340.667 126.648h30v28.86h-30z"/><path id="XMLID_1361_" d="m319.991 477.799c-11.698 0-16.879-3.238-24.049-7.72-8.754-5.472-19.648-12.28-39.95-12.28-20.301 0-31.195 6.809-39.948 12.28-7.17 4.481-12.351 7.72-24.048 7.72-11.698 0-16.879-3.238-24.049-7.72-8.754-5.472-19.648-12.28-39.95-12.28v30c11.698 0 16.879 3.238 24.049 7.72 8.754 5.472 19.648 12.28 39.95 12.28 20.301 0 31.195-6.809 39.948-12.28 7.17-4.481 12.351-7.72 24.048-7.72 11.698 0 16.879 3.238 24.05 7.72 8.754 5.472 19.648 12.28 39.95 12.28s31.197-6.809 39.95-12.28c7.171-4.481 12.353-7.72 24.051-7.72v-30c-20.302 0-31.197 6.809-39.95 12.28-7.173 4.481-12.354 7.72-24.052 7.72z"/></g></svg>